<?xml version="1.0" encoding="UTF-8" standalone="no"?>
<svg
   version="1.1"
   id="Layer_1"
   x="0px"
   y="0px"
   viewBox="0 0 197.2 143"
   xml:space="preserve"
   sodipodi:docname="logo.svg"
   inkscape:version="1.2.2 (732a01da63, 2022-12-09)"
   xmlns:inkscape="http://www.inkscape.org/namespaces/inkscape"
   xmlns:sodipodi="http://sodipodi.sourceforge.net/DTD/sodipodi-0.dtd"
   xmlns="http://www.w3.org/2000/svg"
   xmlns:svg="http://www.w3.org/2000/svg">
  <defs
   id="defs117" />
  <sodipodi:namedview
   id="namedview115"
   pagecolor="#ffffff"
   bordercolor="#000000"
   borderopacity="0.25"
   inkscape:showpageshadow="2"
   inkscape:pageopacity="0.0"
   inkscape:pagecheckerboard="0"
   inkscape:deskcolor="#d1d1d1"
   showgrid="true"
   inkscape:zoom="7.6644441"
   inkscape:cx="105.87852"
   inkscape:cy="40.837926"
   inkscape:window-width="2560"
   inkscape:window-height="1009"
   inkscape:window-x="-8"
   inkscape:window-y="-8"
   inkscape:window-maximized="1"
   inkscape:current-layer="g110"><inkscape:grid
     type="xygrid"
     id="grid331" /></sodipodi:namedview>
  <style
   type="text/css"
   id="style64">
    .st0 {
      fill: #fd0000;
    }
    .st1 {
      fill: #0065ff;
    }
    .st2 {
      fill: #fdec16;
      stroke: #000000;
      stroke-width: 2;
      stroke-miterlimit: 10;
    }
    .st3 {
      fill: none;
    }
    .st4 {
      fill: #fdec16;
    }
  </style>
  <g
   id="g112">
    <g
   id="g86"
   transform="rotate(180,91.2,71.5)">
      <g
   id="g84">
        <g
   id="g70"
   style="fill: #1a3263; fill-opacity: 1">
          <g
   id="g68"
   style="fill: #1a3263; fill-opacity: 1">
            <polygon
   class="st0"
   points="19.5,0 55.3,10.5 55.3,132.5 19.5,143 "
   id="polygon66"
   style="fill: #1a3263; fill-opacity: 1" />
          </g>
        </g>
        <g
   id="g76"
   transform="matrix(0.88120193,0,0,1,-18.964258,-19.331613)"
   style="fill: #f6c324; fill-opacity: 1">
          <g
   id="g74"
   style="fill: #f6c324; fill-opacity: 1"
   transform="matrix(1,0,0,0.9642872,0,5.0546344)">
            <rect
   x="124.1"
   y="90.699997"
   class="st1"
   width="73"
   height="15.5"
   id="rect72"
   style="fill: #f6c324; fill-opacity: 1" />
          </g>
        </g>
        <g
   id="g82">
          <g
   id="g80" />
        </g>
      </g>
    </g>
    <g
   id="g96"
   transform="matrix(-1,0,0,-1.3993188,182.4,143)">
      <polygon
   class="st4"
   points="55.3,10.5 19.5,0 86.3,138.8 102.5,102.8 100.9,99.8 87,99.8 87,97.2 99.6,97.2 "
   id="polygon90"
   transform="scale(1,0.57593195)"
   style="fill: #e57b62; fill-opacity: 1" />
    </g>
    <g
   id="g110"
   transform="matrix(0.99277352,0,0,1,0.69446475,0)">
      <rect
   x="-84.908035"
   y="-85.066452"
   width="10.073844"
   height="10.130968"
   id="rect98"
   transform="scale(-1)"
   style="fill:#aeaeae;fill-opacity:1;stroke-width:0.96213" />
      <polygon
   points="87.8,141.9 106.8,99.8 124.1,99.8 124.1,97.2 108,97.2 148.8,6.5 148.8,143 162.9,143 162.9,0 148.8,0 148.8,0.1 105,97.2 99.6,97.2 87,97.2 87,99.8 100.9,99.8 103.8,99.8 102.5,102.8 86.3,138.8 87,140.4 "
   id="polygon100"
   transform="matrix(-1,0,0,-0.80607369,182.4,143)"
   style="display:inline;fill:#1a3263;fill-opacity:1" />
    </g>
  </g>
</svg>
